#N canvas 1259 402 661 668 12;
#X floatatom 235 65 5 0 0 0 - #0-pitch-set #0-pitch;
#X floatatom 235 87 5 0 0 0 - #0-velocity-set #0-velocity;
#X floatatom 235 109 1 0 0 0 - #0-trigger-set #0-trigger;
#X obj 23 46 inlet;
#X obj 23 96 unpack 0 0;
#X obj 23 121 swap, f 9;
#X obj 23 146 t f f;
#X obj 101 161 s \$0-pitch-set;
#X obj 23 171 > 0;
#X obj 23 196 s \$0-trigger-set;
#X obj 45 227 sel 0;
#X obj 58 257 s \$0-velocity-set;
#X obj 64 330 op~ \$0 \$2 \$3 0, f 7;
#X obj 64 367 op~ \$0 \$2 \$3 1, f 7;
#X obj 119 367 op~ \$0 \$2 \$3 2, f 7;
#X obj 119 330 op~ \$0 \$2 \$3 3, f 7;
#X obj 278 329 catch~ \$0-op_out;
#X obj 250 496 outlet~;
#N canvas 0 59 1733 971 matrix 0;
#X obj 8 25 r~ \$0-op0;
#X obj 9 278 *~;
#X obj 39 278 *~;
#X obj 69 278 *~;
#X obj 99 278 *~;
#X obj 18 81 r \$2-out0;
#X obj 18 106 * 0.00787402;
#X obj 18 131 *;
#X obj 18 156 pack 0 30;
#X obj 18 181 line~;
#X obj 110 25 r \$2-m12;
#X obj 200 25 r \$2-m13;
#X obj 293 25 r \$2-m14;
#X obj 110 80 * 0.00787402;
#X obj 110 105 *;
#X obj 110 130 *;
#X obj 110 155 * 11000;
#X obj 110 180 pack 0 30;
#X obj 110 205 line~;
#X obj 200 80 * 0.00787402;
#X obj 200 105 *;
#X obj 200 130 *;
#X obj 200 155 * 11000;
#X obj 200 180 pack 0 30;
#X obj 200 205 line~;
#X obj 293 80 * 0.00787402;
#X obj 293 105 *;
#X obj 293 130 *;
#X obj 293 155 * 11000;
#X obj 293 180 pack 0 30;
#X obj 293 205 line~;
#X obj -111 248 throw~ \$0-op_out;
#X obj 389 278 *~;
#X obj 419 278 *~;
#X obj 449 278 *~;
#X obj 479 278 *~;
#X obj 398 106 * 0.00787402;
#X obj 398 131 *;
#X obj 398 156 pack 0 30;
#X obj 398 181 line~;
#X obj 490 80 * 0.00787402;
#X obj 490 105 *;
#X obj 490 130 *;
#X obj 490 155 * 11000;
#X obj 490 180 pack 0 30;
#X obj 490 205 line~;
#X obj 580 80 * 0.00787402;
#X obj 580 105 *;
#X obj 580 130 *;
#X obj 580 155 * 11000;
#X obj 580 180 pack 0 30;
#X obj 580 205 line~;
#X obj 673 80 * 0.00787402;
#X obj 673 105 *;
#X obj 673 130 *;
#X obj 673 155 * 11000;
#X obj 673 180 pack 0 30;
#X obj 673 205 line~;
#X obj 269 248 throw~ \$0-op_out;
#X obj 769 278 *~;
#X obj 799 278 *~;
#X obj 829 278 *~;
#X obj 859 278 *~;
#X obj 778 106 * 0.00787402;
#X obj 778 131 *;
#X obj 778 156 pack 0 30;
#X obj 778 181 line~;
#X obj 870 80 * 0.00787402;
#X obj 870 105 *;
#X obj 870 130 *;
#X obj 870 155 * 11000;
#X obj 870 180 pack 0 30;
#X obj 870 205 line~;
#X obj 960 80 * 0.00787402;
#X obj 960 105 *;
#X obj 960 130 *;
#X obj 960 155 * 11000;
#X obj 960 180 pack 0 30;
#X obj 960 205 line~;
#X obj 1053 80 * 0.00787402;
#X obj 1053 105 *;
#X obj 1053 130 *;
#X obj 1053 155 * 11000;
#X obj 1053 180 pack 0 30;
#X obj 1053 205 line~;
#X obj 649 248 throw~ \$0-op_out;
#X obj 1149 278 *~;
#X obj 1179 278 *~;
#X obj 1209 278 *~;
#X obj 1239 278 *~;
#X obj 1158 106 * 0.00787402;
#X obj 1158 131 *;
#X obj 1158 156 pack 0 30;
#X obj 1158 181 line~;
#X obj 1250 80 * 0.00787402;
#X obj 1250 105 *;
#X obj 1250 130 *;
#X obj 1250 155 * 11000;
#X obj 1250 180 pack 0 30;
#X obj 1250 205 line~;
#X obj 1340 80 * 0.00787402;
#X obj 1340 105 *;
#X obj 1340 130 *;
#X obj 1340 155 * 11000;
#X obj 1340 180 pack 0 30;
#X obj 1340 205 line~;
#X obj 1433 80 * 0.00787402;
#X obj 1433 105 *;
#X obj 1433 130 *;
#X obj 1433 155 * 11000;
#X obj 1433 180 pack 0 30;
#X obj 1433 205 line~;
#X obj 1029 248 throw~ \$0-op_out;
#X obj 388 25 r~ \$0-op1;
#X obj 398 81 r \$2-out1;
#X obj 490 25 r \$2-m21;
#X obj 580 25 r \$2-m23;
#X obj 673 25 r \$2-m24;
#X obj 768 25 r~ \$0-op2;
#X obj 778 81 r \$2-out2;
#X obj 870 25 r \$2-m31;
#X obj 960 25 r \$2-m32;
#X obj 1053 25 r \$2-m34;
#X obj 1148 25 r~ \$0-op3;
#X obj 1158 81 r \$2-out3;
#X obj 1250 25 r \$2-m41;
#X obj 1340 25 r \$2-m42;
#X obj 1433 25 r \$2-m43;
#X obj 196 432 s~ \$0-o0;
#X obj 516 432 s~ \$0-o1;
#X obj 806 432 s~ \$0-o2;
#X obj 1126 432 s~ \$0-o3;
#X connect 0 0 1 0;
#X connect 0 0 2 0;
#X connect 0 0 3 0;
#X connect 0 0 4 0;
#X connect 1 0 31 0;
#X connect 2 0 129 0;
#X connect 3 0 130 0;
#X connect 4 0 131 0;
#X connect 5 0 6 0;
#X connect 6 0 7 0;
#X connect 6 0 7 1;
#X connect 7 0 8 0;
#X connect 8 0 9 0;
#X connect 9 0 1 1;
#X connect 10 0 13 0;
#X connect 11 0 19 0;
#X connect 12 0 25 0;
#X connect 13 0 14 0;
#X connect 13 0 14 1;
#X connect 13 0 15 1;
#X connect 14 0 15 0;
#X connect 15 0 16 0;
#X connect 16 0 17 0;
#X connect 17 0 18 0;
#X connect 18 0 2 1;
#X connect 19 0 20 0;
#X connect 19 0 20 1;
#X connect 19 0 21 1;
#X connect 20 0 21 0;
#X connect 21 0 22 0;
#X connect 22 0 23 0;
#X connect 23 0 24 0;
#X connect 24 0 3 1;
#X connect 25 0 26 0;
#X connect 25 0 26 1;
#X connect 25 0 27 1;
#X connect 26 0 27 0;
#X connect 27 0 28 0;
#X connect 28 0 29 0;
#X connect 29 0 30 0;
#X connect 30 0 4 1;
#X connect 32 0 58 0;
#X connect 33 0 128 0;
#X connect 34 0 130 0;
#X connect 35 0 131 0;
#X connect 36 0 37 0;
#X connect 36 0 37 1;
#X connect 37 0 38 0;
#X connect 38 0 39 0;
#X connect 39 0 32 1;
#X connect 40 0 41 0;
#X connect 40 0 41 1;
#X connect 40 0 42 1;
#X connect 41 0 42 0;
#X connect 42 0 43 0;
#X connect 43 0 44 0;
#X connect 44 0 45 0;
#X connect 45 0 33 1;
#X connect 46 0 47 0;
#X connect 46 0 47 1;
#X connect 46 0 48 1;
#X connect 47 0 48 0;
#X connect 48 0 49 0;
#X connect 49 0 50 0;
#X connect 50 0 51 0;
#X connect 51 0 34 1;
#X connect 52 0 53 0;
#X connect 52 0 53 1;
#X connect 52 0 54 1;
#X connect 53 0 54 0;
#X connect 54 0 55 0;
#X connect 55 0 56 0;
#X connect 56 0 57 0;
#X connect 57 0 35 1;
#X connect 59 0 85 0;
#X connect 60 0 128 0;
#X connect 61 0 129 0;
#X connect 62 0 131 0;
#X connect 63 0 64 0;
#X connect 63 0 64 1;
#X connect 64 0 65 0;
#X connect 65 0 66 0;
#X connect 66 0 59 1;
#X connect 67 0 68 0;
#X connect 67 0 68 1;
#X connect 67 0 69 1;
#X connect 68 0 69 0;
#X connect 69 0 70 0;
#X connect 70 0 71 0;
#X connect 71 0 72 0;
#X connect 72 0 60 1;
#X connect 73 0 74 0;
#X connect 73 0 74 1;
#X connect 73 0 75 1;
#X connect 74 0 75 0;
#X connect 75 0 76 0;
#X connect 76 0 77 0;
#X connect 77 0 78 0;
#X connect 78 0 61 1;
#X connect 79 0 80 0;
#X connect 79 0 80 1;
#X connect 79 0 81 1;
#X connect 80 0 81 0;
#X connect 81 0 82 0;
#X connect 82 0 83 0;
#X connect 83 0 84 0;
#X connect 84 0 62 1;
#X connect 86 0 112 0;
#X connect 87 0 128 0;
#X connect 88 0 129 0;
#X connect 89 0 130 0;
#X connect 90 0 91 0;
#X connect 90 0 91 1;
#X connect 91 0 92 0;
#X connect 92 0 93 0;
#X connect 93 0 86 1;
#X connect 94 0 95 0;
#X connect 94 0 95 1;
#X connect 94 0 96 1;
#X connect 95 0 96 0;
#X connect 96 0 97 0;
#X connect 97 0 98 0;
#X connect 98 0 99 0;
#X connect 99 0 87 1;
#X connect 100 0 101 0;
#X connect 100 0 101 1;
#X connect 100 0 102 1;
#X connect 101 0 102 0;
#X connect 102 0 103 0;
#X connect 103 0 104 0;
#X connect 104 0 105 0;
#X connect 105 0 88 1;
#X connect 106 0 107 0;
#X connect 106 0 107 1;
#X connect 106 0 108 1;
#X connect 107 0 108 0;
#X connect 108 0 109 0;
#X connect 109 0 110 0;
#X connect 110 0 111 0;
#X connect 111 0 89 1;
#X connect 113 0 32 0;
#X connect 113 0 33 0;
#X connect 113 0 34 0;
#X connect 113 0 35 0;
#X connect 114 0 36 0;
#X connect 115 0 40 0;
#X connect 116 0 46 0;
#X connect 117 0 52 0;
#X connect 118 0 59 0;
#X connect 118 0 60 0;
#X connect 118 0 61 0;
#X connect 118 0 62 0;
#X connect 119 0 63 0;
#X connect 120 0 67 0;
#X connect 121 0 73 0;
#X connect 122 0 79 0;
#X connect 123 0 86 0;
#X connect 123 0 87 0;
#X connect 123 0 88 0;
#X connect 123 0 89 0;
#X connect 124 0 90 0;
#X connect 125 0 94 0;
#X connect 126 0 100 0;
#X connect 127 0 106 0;
#X restore 64 308 pd matrix;
#X obj 248 453 *~;
#X obj 407 374 r \$2-volume_meter;
#X obj 407 399 *;
#X obj 407 424 pack 0 30;
#X obj 407 449 line~;
#X connect 3 0 4 0;
#X connect 4 0 5 0;
#X connect 4 1 5 1;
#X connect 5 0 6 0;
#X connect 5 1 7 0;
#X connect 6 0 8 0;
#X connect 6 1 10 0;
#X connect 8 0 9 0;
#X connect 10 1 11 0;
#X connect 16 0 19 0;
#X connect 19 0 17 0;
#X connect 20 0 21 0;
#X connect 20 0 21 1;
#X connect 21 0 22 0;
#X connect 22 0 23 0;
#X connect 23 0 19 1;
