#N canvas 662 167 1118 987 12;
#X declare -path ../lib;
#X obj 30 461 out1~;
#X obj 57 121 fm_synth~ \$0 8 0;
#X msg 52 58 60 80 1500 \, 64 80 1500 \, 67 80 1500;
#X obj 436 29 tgl 32 0 empty \$0-pseudo_toggle-set empty 17 7 0 10
-262144 -1 -1 1 1;
#N canvas 186 59 1070 813 pseudo_seq 0;
#X obj 102 263 random 8;
#X obj 102 288 map;
#X msg 177 266 0 2 4 5 7 9 11;
#X obj 176 239 sel 1;
#X obj 102 313 + 60;
#X obj 100 158 metro 500;
#X obj 107 68 inlet;
#X obj 102 338 t f b, f 15;
#X obj 249 64 inlet;
#X obj 249 89 expr 60000 / $f1;
#X obj 249 114 t f f;
#X obj 212 390 f;
#X obj 115 418 pack 0 0;
#X msg 116 450 \$1 80 \$2;
#X obj 116 475 outlet;
#X obj 395 62 inlet;
#X obj 310 190 * 0.7;
#X obj 108 208 s \$0-clock;
#X obj 472 100 sel 0 1 2 3 4 5;
#X msg 377 185 0 4 7 11 14 16 19;
#X msg 397 216 0 4 9 12 14 16 19;
#X msg 463 273 0 5 9 11 14 19 21;
#X msg 483 300 0 2 7 9 12 16 19;
#X msg 427 246 -1 2 7 11 14 18 19;
#X msg 463 326 -1 2 5 8 11 14 23;
#X obj 480 64 hradio 15 1 0 6 \$0-progression \$0-progression-set empty
0 -8 0 10 -262144 -1 -1 3;
#N canvas 0 50 450 250 (subpatch) 0;
#X array \$0-random 6 float 3;
#A 0 585.714 7.14471 71.4286 771.429 364.286 7.14313;
#X coords 0 1000 6 0 200 140 1 0 0;
#X restore 670 74 graph;
#X obj 332 463 r \$0-clock;
#X obj 332 513 f;
#X obj 332 538 + 1;
#X obj 332 563 %;
#X obj 332 588 sel 0;
#X obj 327 636 bng 15 250 50 0 empty empty empty 17 7 0 10 -262144
-1 -1;
#X obj 327 656 array random \$0-random;
#X obj 327 681 s \$0-progression-set;
#X obj 382 536 random 14;
#X connect 0 0 1 0;
#X connect 1 0 4 0;
#X connect 2 0 1 1;
#X connect 3 0 2 0;
#X connect 4 0 7 0;
#X connect 5 0 0 0;
#X connect 5 0 17 0;
#X connect 6 0 5 0;
#X connect 6 0 3 0;
#X connect 7 0 12 0;
#X connect 7 1 11 0;
#X connect 8 0 9 0;
#X connect 9 0 10 0;
#X connect 10 0 5 1;
#X connect 10 1 16 0;
#X connect 11 0 12 1;
#X connect 12 0 13 0;
#X connect 13 0 14 0;
#X connect 15 0 16 1;
#X connect 16 0 11 1;
#X connect 18 0 19 0;
#X connect 18 1 20 0;
#X connect 18 2 23 0;
#X connect 18 3 21 0;
#X connect 18 4 22 0;
#X connect 18 5 24 0;
#X connect 19 0 1 1;
#X connect 20 0 1 1;
#X connect 21 0 1 1;
#X connect 22 0 1 1;
#X connect 23 0 1 1;
#X connect 24 0 1 1;
#X connect 25 0 18 0;
#X connect 27 0 28 0;
#X connect 28 0 29 0;
#X connect 29 0 30 0;
#X connect 30 0 28 1;
#X connect 30 0 31 0;
#X connect 31 0 32 0;
#X connect 32 0 33 0;
#X connect 32 0 35 0;
#X connect 33 0 34 0;
#X connect 35 0 30 1;
#X restore 464 91 pd pseudo_seq;
#X obj 488 31 hradio 17 1 0 8 empty empty empty 0 -8 0 10 -262144 -1
-1 5;
#N canvas 617 351 419 719 bpm.pres 0;
#X obj 74 26 inlet;
#X obj 79 354 outlet;
#X msg 186 141 120;
#X msg 66 141 30;
#X msg 106 141 60;
#X msg 146 141 90;
#X msg 221 141 180;
#X msg 261 141 240;
#X msg 301 141 360;
#X msg 341 141 480;
#X obj 65 109 sel 0 1 2 3 4 5 6 7;
#X obj 196 281 r \$0-bpm;
#X connect 0 0 10 0;
#X connect 2 0 1 0;
#X connect 3 0 1 0;
#X connect 4 0 1 0;
#X connect 5 0 1 0;
#X connect 6 0 1 0;
#X connect 7 0 1 0;
#X connect 8 0 1 0;
#X connect 9 0 1 0;
#X connect 10 0 3 0;
#X connect 10 1 4 0;
#X connect 10 2 5 0;
#X connect 10 3 2 0;
#X connect 10 4 6 0;
#X connect 10 5 7 0;
#X connect 10 6 8 0;
#X connect 10 7 9 0;
#X connect 11 0 1 0;
#X restore 496 52 pd bpm.pres;
#X obj 476 244 declare -path ../lib;
#X connect 1 0 0 0;
#X connect 2 0 1 0;
#X connect 3 0 4 0;
#X connect 4 0 1 0;
#X connect 5 0 6 0;
#X connect 6 0 4 1;
