#N canvas 605 151 553 793 12;
#X obj 78 27 r \$1-pitch;
#N canvas 579 624 679 703 adsr 0;
#X obj 33 68 inlet~;
#X obj 40 627 outlet~;
#X obj 46 490 *~;
#X obj 53 116 r \$1-trigger;
#X obj 58 298 sel 1;
#X obj 77 393 f;
#X obj 133 338 * 0.00787402;
#X floatatom 77 418 5 0 0 0 - - -;
#X obj 77 442 cadsr~;
#X obj 133 313 r \$1-velocity;
#N canvas 414 376 612 499 adsr_out 0;
#X obj 171 83 ctl-adsr attack 127 4800 3, f 10;
#X obj 170 146 list trim;
#X obj 270 145 list trim;
#X obj 271 82 ctl-adsr decay 127 4800 3, f 10;
#X obj 371 82 * 0.787402;
#X msg 366 146 sustain \$1;
#X obj 490 145 list trim;
#X obj 491 82 ctl-adsr release 127 4800 3, f 10;
#X obj 111 242 + 64;
#X obj 111 267 * 0.00787402;
#X obj 111 292 * 2;
#X obj 111 317 - 1;
#X obj 261 242 + 64;
#X obj 261 267 * 0.00787402;
#X obj 261 292 * 2;
#X obj 261 317 - 1;
#X obj 411 242 + 64;
#X obj 411 267 * 0.00787402;
#X obj 411 292 * 2;
#X obj 411 317 - 1;
#X msg 111 342 attack-curve \$1;
#X msg 261 342 decay-curve \$1;
#X msg 411 342 release-curve \$1;
#X obj 158 398 outlet;
#X obj 171 58 r \$2-attack\$4;
#X obj 271 57 r \$2-decay\$4;
#X obj 371 57 r \$2-sustain\$4;
#X obj 491 57 r \$2-release\$4;
#X obj 111 217 r \$2-attack_curve\$4;
#X obj 261 217 r \$2-decay_curve\$4;
#X obj 411 217 r \$2-release_curve\$4;
#X connect 0 0 1 0;
#X connect 1 0 23 0;
#X connect 2 0 23 0;
#X connect 3 0 2 0;
#X connect 4 0 5 0;
#X connect 5 0 23 0;
#X connect 6 0 23 0;
#X connect 7 0 6 0;
#X connect 8 0 9 0;
#X connect 9 0 10 0;
#X connect 10 0 11 0;
#X connect 11 0 20 0;
#X connect 12 0 13 0;
#X connect 13 0 14 0;
#X connect 14 0 15 0;
#X connect 15 0 21 0;
#X connect 16 0 17 0;
#X connect 17 0 18 0;
#X connect 18 0 19 0;
#X connect 19 0 22 0;
#X connect 20 0 23 0;
#X connect 21 0 23 0;
#X connect 22 0 23 0;
#X connect 24 0 0 0;
#X connect 25 0 3 0;
#X connect 26 0 4 0;
#X connect 27 0 7 0;
#X connect 28 0 8 0;
#X connect 29 0 12 0;
#X connect 30 0 16 0;
#X restore 172 398 pd adsr_out;
#X obj 54 226 pipe;
#X obj 181 74 r \$2-delay\$4;
#X obj 181 99 * 0.00787402;
#X obj 181 124 *;
#X obj 181 149 *;
#X obj 181 174 * 4800;
#X connect 0 0 2 0;
#X connect 2 0 1 0;
#X connect 3 0 11 0;
#X connect 4 0 5 0;
#X connect 4 1 7 0;
#X connect 5 0 7 0;
#X connect 6 0 5 1;
#X connect 7 0 8 0;
#X connect 8 0 2 1;
#X connect 9 0 6 0;
#X connect 10 0 8 1;
#X connect 11 0 4 0;
#X connect 12 0 13 0;
#X connect 13 0 14 0;
#X connect 13 0 14 1;
#X connect 13 0 15 1;
#X connect 14 0 15 0;
#X connect 15 0 16 0;
#X connect 16 0 11 1;
#X restore 83 265 pd adsr;
#N canvas 373 258 748 812 pitch 0;
#X obj 38 58 inlet;
#X obj 38 83 t f b b b, f 30;
#X obj 132 498 r \$2-fine\$4;
#X obj 132 523 + 64;
#X obj 132 548 * 0.00787402;
#X obj 132 573 * 2;
#X obj 132 598 - 1;
#X obj 132 648 + 1;
#X obj 104 690 f;
#X obj 53 124 r \$2-octave\$4;
#X obj 53 149 + 64;
#X obj 53 174 * 0.00787402;
#X obj 53 199 * 6;
#X obj 53 224 - 3;
#X obj 53 249 i;
#X obj 53 274 * 12;
#X obj 57 340 f;
#X obj 178 354 r \$2-harmonicity\$4;
#X obj 178 379 * 0.11811;
#X obj 178 404 + 0.5;
#X obj 178 429 i;
#X obj 178 454 tabread \$2-harmony;
#X obj 38 458 tabread \$2-mtof;
#X obj 58 506 f;
#X obj 38 533 *;
#X obj 38 708 *;
#X obj 38 408 +;
#X obj 38 733 outlet;
#X obj 132 623 * 0.012;
#X connect 0 0 1 0;
#X connect 1 0 26 0;
#X connect 1 1 16 0;
#X connect 1 2 23 0;
#X connect 1 3 8 0;
#X connect 2 0 3 0;
#X connect 3 0 4 0;
#X connect 4 0 5 0;
#X connect 5 0 6 0;
#X connect 6 0 28 0;
#X connect 7 0 8 1;
#X connect 8 0 25 1;
#X connect 9 0 10 0;
#X connect 10 0 11 0;
#X connect 11 0 12 0;
#X connect 12 0 13 0;
#X connect 13 0 14 0;
#X connect 14 0 15 0;
#X connect 15 0 16 1;
#X connect 16 0 26 1;
#X connect 17 0 18 0;
#X connect 18 0 19 0;
#X connect 19 0 20 0;
#X connect 20 0 21 0;
#X connect 21 0 23 1;
#X connect 22 0 24 0;
#X connect 23 0 24 1;
#X connect 24 0 25 0;
#X connect 25 0 27 0;
#X connect 26 0 22 0;
#X connect 28 0 7 0;
#X restore 77 75 pd pitch;
#X obj 169 36 r~ \$1-o\$4;
#X obj 80 377 s~ \$1-op\$4;
#X obj 77 100 sig~;
#X obj 77 125 +~;
#X obj 77 150 tabosc4~ \$2-w\$4;
#X connect 0 0 2 0;
#X connect 1 0 4 0;
#X connect 2 0 5 0;
#X connect 3 0 6 1;
#X connect 5 0 6 0;
#X connect 6 0 7 0;
#X connect 7 0 1 0;
