#N canvas 0 153 1936 927 12;
#X obj 181 165 t f f;
#X obj 181 191 % 3;
#X obj 187 214 div 3;
#X obj 187 239 t b f;
#X obj 181 378 send;
#X obj 187 304 f \$0;
#X obj 187 329 pack 0 0;
#X msg 187 354 symbol \$1-\$2-set;
#X obj 235 281 + 1;
#X obj 181 142 clip 0 8;
#N canvas 914 224 689 405 output 0;
#X obj 415 216 s \$0-1-set;
#X obj 415 246 s \$0-2-set;
#X obj 415 276 s \$0-3-set;
#X obj 28 206 s \$0-1-set;
#X obj 171 258 + 3;
#X obj 251 258 + 6;
#X obj 414 121 symbol \$3;
#X obj 118 7 r \$0-1;
#X obj 198 7 r \$0-2;
#X obj 278 7 r \$0-3;
#X msg 415 146 color \$1 \$1 \$1;
#X obj 30 115 symbol \$3;
#X obj 35 137 symbol \$4;
#X obj 30 159 pack s s;
#X msg 28 183 color \$1 \$2 \$1;
#X obj 118 32 t f b b b;
#X obj 198 32 t f b b b;
#X obj 278 32 t f b b b;
#X obj 150 115 symbol \$3;
#X obj 155 137 symbol \$4;
#X obj 150 159 pack s s;
#X msg 148 183 color \$1 \$2 \$1;
#X obj 290 115 symbol \$3;
#X obj 295 137 symbol \$4;
#X obj 290 159 pack s s;
#X msg 288 183 color \$1 \$2 \$1;
#X obj 148 206 s \$0-2-set;
#X obj 288 206 s \$0-3-set;
#X obj 113 331 outlet;
#X connect 4 0 28 0;
#X connect 5 0 28 0;
#X connect 6 0 10 0;
#X connect 7 0 15 0;
#X connect 8 0 16 0;
#X connect 9 0 17 0;
#X connect 10 0 0 0;
#X connect 10 0 1 0;
#X connect 10 0 2 0;
#X connect 11 0 13 0;
#X connect 12 0 13 1;
#X connect 13 0 14 0;
#X connect 14 0 3 0;
#X connect 15 0 28 0;
#X connect 15 1 11 0;
#X connect 15 2 12 0;
#X connect 15 3 6 0;
#X connect 16 0 4 0;
#X connect 16 1 18 0;
#X connect 16 2 19 0;
#X connect 16 3 6 0;
#X connect 17 0 5 0;
#X connect 17 1 22 0;
#X connect 17 2 23 0;
#X connect 17 3 6 0;
#X connect 18 0 20 0;
#X connect 19 0 20 1;
#X connect 20 0 21 0;
#X connect 21 0 26 0;
#X connect 22 0 24 0;
#X connect 23 0 24 1;
#X connect 24 0 25 0;
#X connect 25 0 27 0;
#X restore 271 119 pd output;
#X obj 22 22 hradio 20 1 0 3 \$0-1 \$0-1-set empty 0 -8 0 10 -228856
-129007 -228856 2;
#X obj 22 42 hradio 20 1 0 3 \$0-2 \$0-2-set empty 0 -8 0 10 -228856
-228856 -228856 0;
#X obj 22 62 hradio 20 1 0 3 \$0-3 \$0-3-set empty 0 -8 0 10 -228856
-228856 -228856 1;
#X msg 113 43 size 20;
#X obj 181 98 r \$1-\$2-set;
#X obj 271 226 s \$1-\$2;
#X connect 0 0 1 0;
#X connect 0 1 2 0;
#X connect 1 0 4 0;
#X connect 2 0 3 0;
#X connect 3 0 5 0;
#X connect 3 1 8 0;
#X connect 5 0 6 0;
#X connect 6 0 7 0;
#X connect 7 0 4 1;
#X connect 8 0 6 1;
#X connect 9 0 0 0;
#X connect 10 0 16 0;
#X connect 14 0 11 0;
#X connect 14 0 13 0;
#X connect 14 0 12 0;
#X connect 15 0 9 0;
#X coords 0 -1 1 1 64 64 2 20 20;
