#N canvas 226 336 1694 744 12;
#X obj 144 438 list trim;
#X obj 150 299 ctl-adsr attack 1 4800 3;
#X obj 340 299 ctl-adsr decay 1 4800 3;
#X obj 368 365 ctl-adsr release 1 4800 3;
#X obj 225 355 * 100;
#X msg 216 440 sustain \$1;
#X obj 323 437 * 2;
#X obj 323 462 - 1;
#X msg 323 487 attack-curve \$1;
#X obj 449 478 * 2;
#X obj 449 503 - 1;
#X obj 567 553 * 2;
#X obj 567 578 - 1;
#X msg 449 528 decay-curve \$1;
#X msg 567 603 release-curve \$1;
#X obj 162 628 s \$1-adsr_\$2;
#X obj 94 68 inlet;
#X obj 94 93 route \$2;
#X obj 219 148 route adsr_attack adsr_decay adsr_sustain adsr_release
adsr_attack_curve adsr_decay_curve adsr_release_curve, f 122;
#X connect 0 0 15 0;
#X connect 1 0 0 0;
#X connect 2 0 0 0;
#X connect 3 0 0 0;
#X connect 4 0 5 0;
#X connect 5 0 15 0;
#X connect 6 0 7 0;
#X connect 7 0 8 0;
#X connect 8 0 15 0;
#X connect 9 0 10 0;
#X connect 10 0 13 0;
#X connect 11 0 12 0;
#X connect 12 0 14 0;
#X connect 13 0 15 0;
#X connect 14 0 15 0;
#X connect 16 0 17 0;
#X connect 17 0 18 0;
#X connect 18 0 1 0;
#X connect 18 1 2 0;
#X connect 18 2 4 0;
#X connect 18 3 3 0;
#X connect 18 4 6 0;
#X connect 18 5 9 0;
#X connect 18 6 11 0;
