#N canvas 439 130 977 697 12;
#X obj 172 9 r \$1-s_\$2;
#X obj 249 67 r \$1-op;
#X obj 193 270 tabwrite \$1-data, f 23;
#X obj 13 291 s \$1-s_\$2-set;
#X obj 56 319 r \$1-op;
#X obj 51 481 + \$4;
#X obj 50 629 tabread \$1-data;
#X obj 54 688 s \$1-s_\$2-set;
#X floatatom 614 27 5 0 0 0 - #1-#2_0-set #1-#2_0;
#X floatatom 614 48 5 0 0 0 - #1-#2_1-set #1-#2_1;
#X floatatom 653 27 5 0 0 0 - #1-#2_2-set #1-#2_2;
#X floatatom 653 48 5 0 0 0 - #1-#2_3-set #1-#2_3;
#X obj 237 104 f;
#X obj 243 154 + \$4;
#X obj 189 665 f \$1;
#X obj 201 707 pack 0 s 0;
#X obj 237 659 symbol \$2;
#X obj 155 771 s;
#X msg 203 736 symbol \$1-\$2_\$3-set;
#X obj 172 36 t f b, f 21;
#X obj 150 506 r \$1-s_\$2;
#X obj 150 531 t f b b b;
#X obj 321 617 r \$1-op;
#X obj 320 657 f;
#X msg 57 663 set \$1;
#X obj 32 221 f \$3;
#X obj 33 19 r \$1-i;
#X obj 243 129 * 16;
#X obj 51 456 * 16;
#X obj 144 301 r \$1-preset_bank;
#X obj 144 326 * 128;
#X obj 119 474 f;
#X obj 57 413 t f b;
#X obj 51 506 +;
#X obj 56 344 f;
#X obj 144 351 t b f;
#X obj 374 50 r \$1-preset_bank;
#X obj 374 75 * 128;
#X obj 243 179 +;
#X obj 523 197 r \$1-\$2_0;
#X obj 523 247 list trim;
#X obj 523 272 s \$1-msg;
#X obj 523 357 list trim;
#X obj 523 382 s \$1-msg;
#X obj 733 247 list trim;
#X obj 733 272 s \$1-msg;
#X obj 733 357 list trim;
#X obj 733 382 s \$1-msg;
#X obj 523 307 r \$1-\$2_1;
#X obj 733 307 r \$1-\$2_2;
#X obj 733 197 r \$1-\$2_3;
#X obj 523 222 list prepend msg all 0 \$2;
#X obj 523 332 list prepend msg all 1 \$2;
#X obj 733 332 list prepend msg all 2 \$2;
#X obj 733 222 list prepend msg all 3 \$2;
#X connect 0 0 19 0;
#X connect 1 0 12 1;
#X connect 4 0 34 0;
#X connect 5 0 33 0;
#X connect 6 0 21 0;
#X connect 6 0 24 0;
#X connect 12 0 27 0;
#X connect 13 0 38 0;
#X connect 14 0 15 0;
#X connect 15 0 18 0;
#X connect 16 0 15 1;
#X connect 18 0 17 1;
#X connect 19 0 2 0;
#X connect 19 1 12 0;
#X connect 20 0 21 0;
#X connect 21 0 17 0;
#X connect 21 1 14 0;
#X connect 21 2 16 0;
#X connect 21 3 23 0;
#X connect 22 0 23 1;
#X connect 23 0 15 2;
#X connect 24 0 7 0;
#X connect 25 0 3 0;
#X connect 25 0 21 0;
#X connect 26 0 25 0;
#X connect 27 0 13 0;
#X connect 28 0 5 0;
#X connect 29 0 30 0;
#X connect 30 0 35 0;
#X connect 31 0 33 1;
#X connect 32 0 28 0;
#X connect 32 1 31 0;
#X connect 33 0 6 0;
#X connect 34 0 32 0;
#X connect 35 0 34 0;
#X connect 35 1 31 1;
#X connect 36 0 37 0;
#X connect 37 0 38 1;
#X connect 38 0 2 1;
#X connect 39 0 51 0;
#X connect 40 0 41 0;
#X connect 42 0 43 0;
#X connect 44 0 45 0;
#X connect 46 0 47 0;
#X connect 48 0 52 0;
#X connect 49 0 53 0;
#X connect 50 0 54 0;
#X connect 51 0 40 0;
#X connect 52 0 42 0;
#X connect 53 0 46 0;
#X connect 54 0 44 0;
