#N canvas 0 91 305 400 12;
#X obj 60 120 inlet;
#X obj 60 145 *;
#X obj 60 170 *;
#X obj 60 195 * 11000;
#X obj 60 220 pack 0 30;
#X obj 60 245 line~;
#X obj 60 270 outlet~;
#X connect 0 0 1 0;
#X connect 0 0 1 1;
#X connect 0 0 2 1;
#X connect 1 0 2 0;
#X connect 2 0 3 0;
#X connect 3 0 4 0;
#X connect 4 0 5 0;
#X connect 5 0 6 0;
