#N canvas 1040 59 573 527 12;
#X obj 69 74 r~ \$1-\$2;
#X obj 65 256 r \$1-\$3;
#X obj 33 361 *;
#X obj 33 386 pack 0 30;
#X obj 33 411 line~;
#X obj 5 452 *~;
#X obj 127 344 *~;
#X obj 207 344 *~;
#X obj 297 344 *~;
#X obj 212 134 r \$1-\$4;
#X obj 212 159 *;
#X obj 212 184 *;
#X obj 212 209 * 11000;
#X obj 212 234 pack 0 30;
#X obj 212 259 line~;
#X obj 302 159 *;
#X obj 302 184 *;
#X obj 302 209 * 11000;
#X obj 302 234 pack 0 30;
#X obj 302 259 line~;
#X obj 402 159 *;
#X obj 402 184 *;
#X obj 402 209 * 11000;
#X obj 402 234 pack 0 30;
#X obj 402 259 line~;
#X obj 303 126 r \$1-\$5;
#X obj 402 134 r \$1-\$6;
#X obj 128 370 outlet~;
#X obj 207 369 outlet~;
#X obj 297 369 outlet~;
#X obj 5 477 outlet~;
#X connect 0 0 5 0;
#X connect 0 0 6 0;
#X connect 0 0 8 0;
#X connect 0 0 7 0;
#X connect 1 0 2 0;
#X connect 1 0 2 1;
#X connect 2 0 3 0;
#X connect 3 0 4 0;
#X connect 4 0 5 1;
#X connect 5 0 30 0;
#X connect 6 0 27 0;
#X connect 7 0 28 0;
#X connect 8 0 29 0;
#X connect 9 0 10 0;
#X connect 9 0 10 1;
#X connect 9 0 11 1;
#X connect 10 0 11 0;
#X connect 11 0 12 0;
#X connect 12 0 13 0;
#X connect 13 0 14 0;
#X connect 14 0 6 1;
#X connect 15 0 16 0;
#X connect 16 0 17 0;
#X connect 17 0 18 0;
#X connect 18 0 19 0;
#X connect 19 0 7 1;
#X connect 20 0 21 0;
#X connect 21 0 22 0;
#X connect 22 0 23 0;
#X connect 23 0 24 0;
#X connect 24 0 8 1;
#X connect 25 0 15 0;
#X connect 25 0 15 1;
#X connect 25 0 16 1;
#X connect 26 0 20 1;
#X connect 26 0 20 0;
#X connect 26 0 21 1;
