#N canvas 89 213 727 571 12;
#X obj 54 39 r \$1-\$2;
#X obj 118 188 r \$1-preset_bank;
#X obj 118 213 * 128;
#X obj 54 214 t f b;
#X obj 115 317 f;
#X obj 115 342 + \$4;
#X obj 50 406 tabwrite \$1-data;
#X obj 277 39 r \$1-preset_bank;
#X obj 277 64 * 128;
#X obj 277 89 + \$4;
#X obj 277 114 t b f b;
#X obj 54 64 spigot;
#X msg 328 150 0;
#X msg 258 150 1;
#X obj 407 108 loadbang;
#X obj 269 181 tabread \$1-data;
#X obj 269 206 s \$1-\$2-set;
#X obj 526 97 r \$1-init;
#X obj 526 122 f \$3;
#X obj 526 147 s \$1-\$2-set;
#X connect 0 0 11 0;
#X connect 1 0 2 0;
#X connect 2 0 4 1;
#X connect 3 0 6 0;
#X connect 3 1 4 0;
#X connect 4 0 5 0;
#X connect 5 0 6 1;
#X connect 7 0 8 0;
#X connect 8 0 9 0;
#X connect 9 0 10 0;
#X connect 10 0 13 0;
#X connect 10 1 15 0;
#X connect 10 2 12 0;
#X connect 11 0 3 0;
#X connect 12 0 11 1;
#X connect 13 0 11 1;
#X connect 14 0 13 0;
#X connect 15 0 16 0;
#X connect 17 0 18 0;
#X connect 18 0 19 0;
