#N canvas 460 681 703 635 12;
#X obj 49 66 r \$1-\$2;
#X obj 52 365 tabwrite \$1-data;
#X obj 223 84 r \$1-init;
#X obj 223 109 f \$3;
#X obj 243 201 s \$1-\$2-set;
#X obj 155 228 r \$1-preset_bank;
#X obj 125 229 f;
#X obj 125 254 * 128;
#X obj 442 262 * 128;
#X obj 67 137 t f b;
#X obj 114 304 + \$4;
#X obj 442 287 + \$4;
#X obj 442 312 tabread \$1-data;
#X obj 429 415 s \$1-\$2-set;
#X obj 442 237 r \$1-preset_bank;
#X obj 442 337 t b f b;
#X obj 49 91 spigot;
#X msg 576 378 0;
#X msg 538 379 1;
#X floatatom 253 164 5 0 0 0 - - -;
#X connect 0 0 16 0;
#X connect 2 0 3 0;
#X connect 3 0 4 0;
#X connect 3 0 19 0;
#X connect 5 0 6 1;
#X connect 6 0 7 0;
#X connect 7 0 10 0;
#X connect 8 0 11 0;
#X connect 9 0 1 0;
#X connect 9 1 6 0;
#X connect 10 0 1 1;
#X connect 11 0 12 0;
#X connect 12 0 15 0;
#X connect 14 0 8 0;
#X connect 15 0 18 0;
#X connect 15 1 13 0;
#X connect 15 2 17 0;
#X connect 16 0 9 0;
#X connect 17 0 16 1;
#X connect 18 0 16 1;
