#N canvas 871 426 580 591 12;
#X obj 276 79 + 0.5;
#X obj 276 104 i;
#X obj 277 155 t b f;
#X obj 292 255 f;
#X obj 266 281 +;
#X obj 273 206 t f b f, f 9;
#X obj 268 332 tabwrite \$1-w\$2;
#X obj 266 307 tabread \$1-waveforms;
#X obj 13 27 cnv 15 68 47 empty \$0-cnv 1 36 30 1 50 -228856 -262144
0;
#N canvas 0 50 450 250 (subpatch) 0;
#X array \$1-w\$2 515 float 4;
#X coords 0 1 514 -1 70 49 1 0 0;
#X restore 12 26 graph;
#X obj 15 12 hsl 65 12 0 1 0 0 \$1-sel\$2 \$1-sel\$2-set empty -2 -8
0 10 -191407 -262144 -1 0 1;
#X obj 87 180 loadbang;
#X obj 87 205 f \$2;
#X obj 159 129 bng 15 250 50 0 empty empty empty 17 7 0 10 -262144
-1 -1;
#X obj 87 290 fromsymbol;
#X obj 87 315 tosymbol;
#X msg 87 340 label \$1;
#X obj 87 365 s \$0-cnv;
#X obj 276 29 r \$1-sel\$2;
#X obj 87 230 + 1;
#X obj 276 54 * 26;
#X obj 273 181 for 0 515;
#X obj 327 233 * 515;
#X connect 0 0 1 0;
#X connect 1 0 2 0;
#X connect 2 0 21 0;
#X connect 2 1 22 0;
#X connect 3 0 4 1;
#X connect 4 0 7 0;
#X connect 5 0 4 0;
#X connect 5 1 3 0;
#X connect 5 2 6 1;
#X connect 7 0 6 0;
#X connect 11 0 12 0;
#X connect 12 0 19 0;
#X connect 13 0 12 0;
#X connect 14 0 15 0;
#X connect 15 0 16 0;
#X connect 16 0 17 0;
#X connect 18 0 20 0;
#X connect 19 0 14 0;
#X connect 20 0 0 0;
#X connect 21 0 5 0;
#X connect 22 0 3 1;
#X coords 0 -1 1 1 74 67 2 10 10;
