#N canvas 375 55 755 1015 10;
#X msg 494 -83 attack \$1;
#X msg 494 -41 decay \$1;
#X msg 494 41 release \$1;
#X msg 494 0 sustain \$1;
#X msg 495 94 attack-curve \$1;
#X msg 495 138 decay-curve \$1;
#X msg 495 180 release-curve \$1;
#X floatatom 494 -103 5 0 1e+08 0 - #0-attack -;
#X floatatom 494 -61 5 0 1e+09 0 - #0-decay -;
#X floatatom 494 -20 5 0 100 0 - #0-sustain -;
#X floatatom 494 21 5 0 1e+09 0 - #0-release -;
#X floatatom 495 72 5 -1 1 0 - #0-a-curve -;
#X floatatom 495 116 5 -1 1 0 - #0-d-curve -;
#X floatatom 495 159 5 -1 1 0 - #0-r-curve -;
#X obj 207 42 f;
#N canvas 0 0 450 300 (subpatch) 0;
#X array \$0-ADSRenv 44100 float 2;
#X coords 0 1 44100 0 200 140 1 0 0;
#X restore 206 459 graph;
#X obj 222 10 / 100;
#X floatatom 222 -10 5 0 100 0 - #0-peak -;
#X obj 114 434 *~;
#X obj 115 506 dac~;
#X obj 139 -43 tgl 15 0 empty empty empty 17 7 0 10 -262144 -1 -1 0
1;
#X obj 139 -12 sel 1;
#X text 204 597 0;
#X text 159 -42 trigger;
#X text 403 597 1000 ms;
#X text 259 -11 peak level;
#X floatatom 207 124 5 0 0 0 - - -;
#N canvas 780 215 450 300 init 0;
#X obj 199 52 f \$0;
#X obj 199 9 loadbang;
#X msg 284 37 \; pd dsp 1;
#X msg 198 76 \; \$1-attack 100 \; \$1-decay 100 \; \$1-sustain 50
\; \$1-release 500 \; \$1-a-curve -0.8 \; \$1-d-curve -0.3 \; \$1-r-curve
-0.4 \; \$1-peak 80;
#X obj 91 51 samplerate~;
#X obj 83 125 s \$0-ADSRenv;
#X msg 83 101 resize \$1;
#X connect 0 0 3 0;
#X connect 1 0 0 0;
#X connect 1 0 2 0;
#X connect 1 0 4 0;
#X connect 4 0 6 0;
#X connect 6 0 5 0;
#X restore 657 -205 pd init;
#X obj 207 424 tabwrite~ \$0-ADSRenv;
#X text 153 -158 attack \, decay \, sustain \, release \, attack-curve
\, decay-curve \,;
#X text 511 -158 release-curve;
#X text 89 -123 attack- \, decay- \, release- time are in ms \, sustain
in percent;
#X obj 114 395 osc~ 261.6;
#X text 90 -181 cadsr~ curved ADSR-envelope generator;
#X text 89 -159 arguments:;
#X obj 208 162 cadsr~ 100 100 50 500 -0.8 -0.3 -0.4;
#X text 89 -110 curve parameters range from -1 to 1 \,;
#X text 88 -97 values from -1 to 0 produce a "logarithmic" curve \,
values from 0 to 1 produce a "exponential" curve \, 0 produces a straight
line;
#X obj 421 421 bng 15 250 50 0 empty empty empty 17 7 0 10 -262144
-1 -1;
#X text 442 240 bang when done;
#X msg 510 376 const 0;
#X obj 510 399 s \$0-ADSRenv;
#X obj 115 476 *~ 0.5;
#X obj 127 252 *~ -1;
#X obj 127 275 +~ 1;
#X connect 0 0 35 1;
#X connect 1 0 35 1;
#X connect 2 0 35 1;
#X connect 3 0 35 1;
#X connect 4 0 35 1;
#X connect 5 0 35 1;
#X connect 6 0 35 1;
#X connect 7 0 0 0;
#X connect 8 0 1 0;
#X connect 9 0 3 0;
#X connect 10 0 2 0;
#X connect 11 0 4 0;
#X connect 12 0 5 0;
#X connect 13 0 6 0;
#X connect 14 0 26 0;
#X connect 16 0 14 1;
#X connect 17 0 16 0;
#X connect 18 0 42 0;
#X connect 20 0 21 0;
#X connect 21 0 14 0;
#X connect 21 0 28 0;
#X connect 21 1 26 0;
#X connect 26 0 35 0;
#X connect 32 0 18 0;
#X connect 35 0 32 0;
#X connect 35 0 28 0;
#X connect 35 1 38 0;
#X connect 40 0 41 0;
#X connect 42 0 19 0;
#X connect 42 0 19 1;
#X connect 43 0 44 0;
