#N canvas 600 208 937 651 12;
#X obj 146 128 t b f;
#X obj 146 212 symbol \$1;
#X obj 146 296 pack s 0;
#X obj 146 320 outlet;
#X obj 235 212 * \$3;
#X obj 229 161 / \$2;
#X text 293 39 \$1 name;
#X text 293 50 \$2 input range;
#X text 293 60 \$3 output range;
#X text 293 71 \$4 power;
#X obj 229 185 pow \$4;
#X obj 146 104 inlet;
#X obj 235 235 + 5;
#X connect 0 0 1 0;
#X connect 0 1 5 0;
#X connect 1 0 2 0;
#X connect 2 0 3 0;
#X connect 4 0 12 0;
#X connect 5 0 10 0;
#X connect 10 0 4 0;
#X connect 11 0 0 0;
#X connect 12 0 2 1;
